<?xml version="1.0" encoding="UTF-8"?><svg id="a" xmlns="http://www.w3.org/2000/svg" viewBox="0 0 60 60"><defs><style>.b{fill:#0b2e44;}</style></defs><g><path class="b" d="M30,9.41c-4.84,0-8.76,3.92-8.76,8.76s3.92,8.76,8.76,8.76,8.76-3.92,8.76-8.76-3.92-8.76-8.76-8.76Zm0,16.92c-4.5,0-8.16-3.66-8.16-8.16s3.66-8.16,8.16-8.16,8.16,3.66,8.16,8.16-3.66,8.16-8.16,8.16Z"/><path class="b" d="M30,8.81c-5.16,0-9.36,4.2-9.36,9.36s4.2,9.36,9.36,9.36,9.36-4.2,9.36-9.36-4.2-9.36-9.36-9.36Zm0,17.52c-4.5,0-8.16-3.66-8.16-8.16s3.66-8.16,8.16-8.16,8.16,3.66,8.16,8.16-3.66,8.16-8.16,8.16Z"/></g><path class="b" d="M48.4,41.84v7.93c0,.33-.27,.6-.6,.6h-5.71l-.05-.6-.04-.6-.45-6.34c-.02-.33-.32-.57-.64-.56-.33,.03-.58,.31-.56,.64l.45,6.26,.04,.6,.04,.6H19.13l.05-.6,.06-.6,.6-6.24c.03-.33-.21-.63-.54-.66-.33-.03-.63,.21-.66,.54l-.61,6.36-.06,.6-.05,.6h-5.72c-.33,0-.6-.27-.6-.6v-7.93c0-1.75,.34-3.45,1-5.06,.67-1.62,1.64-3.06,2.87-4.3,1.24-1.23,2.68-2.2,4.3-2.87,1.61-.66,3.31-1,5.05-1h.58c.22,0,.43,.12,.53,.32l4.19,8.1,4.27-8.1c.1-.2,.31-.32,.53-.32h.26c1.74,0,3.44,.34,5.05,1,1.62,.67,3.06,1.64,4.3,2.87,1.23,1.24,2.2,2.68,2.87,4.3,.66,1.61,1,3.31,1,5.06Z"/></svg>